<svg xmlns="http://www.w3.org/2000/svg" width="24" height="24" fill-rule="evenodd" viewBox="0 0 24 24"><path class="icon_svg-fill_as_stroke" fill="#b92b27" d="M6.085 22.407h4.838l-2.419-4.202-2.419 4.202"></path><g fill-rule="nonzero"><path d="m17.912 22.407-2.419-4.202-1.509 2.62 3.928 1.582zm-5.913-4.823a8.12 8.12 0 0 1-2.683-.462l2.683 4.661 2.683-4.661a8.12 8.12 0 0 1-2.683.462zm2.683-.462-2.683 4.661.359.625 1.521-1.625.106.042 1.509-2.62-.656-1.14-.154.057z" fill="#fe4028"></path><path class="icon_svg-fill_as_stroke" d="M11.998 2.413c-3.834 0-6.943 3.117-6.943 6.962 0 2.72 1.559 5.07 3.827 6.215a6.89 6.89 0 0 0 3.116.746 6.89 6.89 0 0 0 3.115-.746 6.959 6.959 0 0 0 3.827-6.215c0-3.845-3.108-6.962-6.942-6.962zm0 11.689c-2.599 0-4.714-2.121-4.714-4.727s2.115-4.727 4.714-4.727 4.714 2.12 4.714 4.727-2.115 4.727-4.714 4.727z" fill="#b92b27"></path></g><path class="icon_svg-fill_as_stroke" fill="#fe4028" d="m11.975 5.931 1.157.958 1.45.334-.007 1.528.65 1.373-1.165.947-.639 1.379-1.446-.346-1.446.346-.639-1.379-1.165-.947.65-1.373-.007-1.528 1.449-.334 1.157-.958"></path></svg>